<?xml version="1.0" encoding="UTF-8" standalone="no"?><!DOCTYPE svg PUBLIC "-//W3C//DTD SVG 1.1//EN" "http://www.w3.org/Graphics/SVG/1.1/DTD/svg11.dtd"><svg width="100%" height="100%" viewBox="0 0 51 75" version="1.1" xmlns="http://www.w3.org/2000/svg" xmlns:xlink="http://www.w3.org/1999/xlink" xml:space="preserve" xmlns:serif="http://www.serif.com/" style="fill-rule:evenodd;clip-rule:evenodd;stroke-linejoin:round;stroke-miterlimit:2;"><g id="Layer1"><path d="M0.05,20.525l50.318,-0.001l0,-7.671l-6.302,0l0,-2.482l-1.482,0c0,0 -3.265,0.126 -5.713,-1.323c-2.422,-1.433 -2.872,-2.796 -2.879,-2.802l0,-1.994l-3.228,0c-0.551,-2.434 -2.726,-4.252 -5.328,-4.252c-2.602,0 -4.777,1.818 -5.328,4.252l-3.285,0l0,1.994c-0.013,0.013 -0.463,1.372 -2.879,2.802c-2.449,1.449 -5.713,1.323 -5.713,1.323l-1.929,0l0,2.482l-6.302,0l-0,7.643" style="fill:#bc4a26;fill-rule:nonzero;"/><path d="M21.539,40.46l3.661,-11.266l3.661,11.266l11.846,0l-9.584,6.961l3.661,11.266l-9.584,-6.964l-9.584,6.963l3.661,-11.265l-9.584,-6.961l11.846,0Zm-21.501,-3.405c0.067,3.688 0.608,7.328 1.536,10.902c1.745,6.719 4.973,12.58 10.113,17.317c3.966,3.655 8.535,6.435 13.213,9.053c0.137,0.076 0.4,0.049 0.547,-0.033c3.252,-1.799 6.413,-3.744 9.425,-5.932c6.413,-4.662 10.868,-10.728 13.249,-18.306c1.665,-5.304 2.222,-10.761 2.257,-16.284c0.018,-2.89 0.021,-7.927 0.022,-10.817l-50.379,0c-0.002,3.985 -0.056,10.117 0.017,14.1" style="fill:#bc4a26;fill-rule:nonzero;"/><path d="M25.344,20.526l0.143,-20.497c-2.602,0 -4.778,1.819 -5.328,4.251l-3.286,0l0,1.995c-0.012,0.013 -0.462,1.372 -2.878,2.802c-2.449,1.449 -5.713,1.323 -5.713,1.323l-1.929,0l0,2.482l-6.302,0l0,7.643l25.293,0.001Z" style="fill:#d86127;fill-rule:nonzero;"/><path d="M25.234,51.742l-9.584,6.963l3.66,-11.264l-9.583,-6.962l11.846,0l3.661,-11.266l-0.042,-6.239l-25.137,0c-0.002,3.985 -0.056,10.117 0.017,14.101c0.067,3.687 0.608,7.327 1.536,10.901c1.745,6.72 4.973,12.58 10.113,17.317c3.967,3.655 8.536,6.435 13.213,9.053c0.137,0.076 0.258,0.026 0.258,0.026l0.042,-22.63Z" style="fill:#d86127;fill-rule:nonzero;"/><path d="M40.741,40.46l-11.847,0l-3.66,-11.266l-3.66,11.266l-11.848,0l9.584,6.961l-3.66,11.266l9.584,-6.964l9.584,6.964l-3.661,-11.266l9.584,-6.961Z" style="fill:#fff;fill-rule:nonzero;"/><path d="M25.234,29.193l3.66,11.266l11.847,0l-9.584,6.962l3.661,11.265l-9.584,-6.964l0,-22.529Z" style="fill:#fdceb0;fill-rule:nonzero;"/><path d="M31.247,72.958l0.265,0c0.127,0 0.214,-0.019 0.26,-0.057c0.046,-0.038 0.069,-0.088 0.069,-0.15c0,-0.04 -0.011,-0.076 -0.034,-0.108c-0.022,-0.031 -0.052,-0.055 -0.092,-0.07c-0.04,-0.016 -0.113,-0.024 -0.219,-0.024l-0.249,0l0,0.409Zm-0.218,0.762l0,-1.354l0.465,0c0.159,0 0.274,0.012 0.345,0.037c0.071,0.026 0.128,0.069 0.17,0.131c0.042,0.063 0.064,0.129 0.064,0.199c0,0.099 -0.035,0.185 -0.106,0.258c-0.071,0.074 -0.164,0.115 -0.281,0.124c0.048,0.02 0.086,0.044 0.115,0.072c0.055,0.053 0.121,0.143 0.2,0.268l0.165,0.265l-0.267,0l-0.12,-0.213c-0.095,-0.168 -0.17,-0.273 -0.229,-0.315c-0.039,-0.032 -0.098,-0.047 -0.174,-0.047l-0.129,0l0,0.575l-0.218,0Zm0.552,-1.746c-0.177,0 -0.349,0.045 -0.517,0.136c-0.167,0.09 -0.298,0.22 -0.392,0.389c-0.095,0.168 -0.142,0.343 -0.142,0.526c0,0.181 0.046,0.355 0.139,0.521c0.093,0.166 0.223,0.296 0.39,0.389c0.167,0.092 0.341,0.139 0.522,0.139c0.181,0 0.355,-0.047 0.522,-0.139c0.167,-0.093 0.296,-0.223 0.388,-0.389c0.093,-0.166 0.139,-0.34 0.139,-0.521c0,-0.183 -0.047,-0.358 -0.141,-0.526c-0.094,-0.169 -0.225,-0.299 -0.393,-0.389c-0.168,-0.091 -0.34,-0.136 -0.515,-0.136m0,-0.209c0.211,0 0.417,0.054 0.619,0.163c0.201,0.108 0.358,0.264 0.47,0.465c0.112,0.202 0.168,0.413 0.168,0.632c0,0.217 -0.055,0.425 -0.165,0.625c-0.111,0.2 -0.266,0.356 -0.466,0.467c-0.199,0.11 -0.408,0.165 -0.626,0.165c-0.218,0 -0.427,-0.055 -0.627,-0.165c-0.199,-0.111 -0.355,-0.267 -0.466,-0.467c-0.111,-0.2 -0.167,-0.408 -0.167,-0.625c0,-0.219 0.057,-0.43 0.17,-0.632c0.113,-0.201 0.269,-0.357 0.471,-0.465c0.201,-0.109 0.407,-0.163 0.619,-0.163" style="fill:#fff;fill-rule:nonzero;"/></g></svg>